<svg xmlns="http://www.w3.org/2000/svg" viewBox="0 0 520 220" role="img" aria-labelledby="title desc">
  <title id="title">VCA logo</title>
  <desc id="desc">VCA certificering logo</desc>
  <rect width="520" height="220" fill="none"/>
  <g fill="#00605c">
    <path d="M73 72h58l42 98h-50L73 72Z"/>
    <path d="M143 72h54l-58 98H91l52-98Z"/>
    <path d="M242 70c33 0 56 16 68 44h-48c-5-8-12-12-22-12-18 0-29 14-29 34s11 34 29 34c10 0 17-4 22-12h48c-12 28-35 44-68 44-47 0-79-28-79-66s32-66 79-66Z"/>
    <path d="M394 72h48l-52 128h-49L289 72h49l28 80 28-80Z"/>
  </g>
  <path d="M406 50 446 89 512 24" fill="none" stroke="#00605c" stroke-linecap="round" stroke-linejoin="round" stroke-width="28"/>
</svg>
